<?xml version="1.0" encoding="UTF-8"?>
<svg version="1.1" xmlns="http://www.w3.org/2000/svg" width="512" height="512">
<path d="M0 0 C1.01790619 0.00215515 2.03581238 0.0043103 3.08456421 0.00653076 C17.69363523 0.05620146 32.02575853 0.30709809 46.375 3.3125 C47.34985352 3.51117676 48.32470703 3.70985352 49.32910156 3.91455078 C97.7109774 14.03517194 141.69928269 35.9516877 177.375 70.3125 C178.3640332 71.26068604 178.3640332 71.26068604 179.37304688 72.22802734 C188.86130305 81.37247479 197.6012044 90.66984009 205.375 101.3125 C206.23306152 102.46355017 207.09113451 103.61459177 207.94921875 104.765625 C213.98736829 112.95680614 219.34595521 121.47054105 224.375 130.3125 C224.73948242 130.94430176 225.10396484 131.57610352 225.47949219 132.22705078 C247.08534998 169.97532572 256.85198095 212.74189997 256.6875 255.9375 C256.68534485 256.95540619 256.6831897 257.97331238 256.68096924 259.02206421 C256.63129854 273.63113523 256.38040191 287.96325853 253.375 302.3125 C253.07698486 303.77478027 253.07698486 303.77478027 252.77294922 305.26660156 C242.65232806 353.6484774 220.7358123 397.63678269 186.375 433.3125 C185.74287598 433.97185547 185.11075195 434.63121094 184.45947266 435.31054688 C175.31502521 444.79880305 166.01765991 453.5387044 155.375 461.3125 C154.22394983 462.17056152 153.07290823 463.02863451 151.921875 463.88671875 C143.73224019 469.92427396 135.22961724 475.30707302 126.375 480.3125 C125.66778809 480.7146875 124.96057617 481.116875 124.23193359 481.53125 C101.09654164 494.5566741 75.92537591 503.30551461 49.9375 508.625 C49.21860596 508.77235596 48.49971191 508.91971191 47.7590332 509.0715332 C33.08339502 511.86090125 18.55831162 512.66142619 3.64770508 512.62817383 C0.70811513 512.6250221 -2.2304558 512.64854926 -5.16992188 512.67382812 C-18.54306192 512.71848737 -31.43916711 511.51301542 -44.625 509.3125 C-46.33055054 509.03031616 -46.33055054 509.03031616 -48.07055664 508.74243164 C-91.33802759 500.97044532 -132.38793216 480.98345309 -165.625 452.3125 C-166.37007813 451.67828125 -167.11515625 451.0440625 -167.8828125 450.390625 C-181.38779833 438.57948485 -194.05918743 425.82889772 -204.625 411.3125 C-205.48149066 410.16255169 -206.33826433 409.01281411 -207.1953125 407.86328125 C-213.23534209 399.67315742 -218.61867614 391.16870382 -223.625 382.3125 C-224.0271875 381.60528809 -224.429375 380.89807617 -224.84375 380.16943359 C-237.8691741 357.03404164 -246.61801461 331.86287591 -251.9375 305.875 C-252.08485596 305.15610596 -252.23221191 304.43721191 -252.3840332 303.6965332 C-255.35789088 288.05024391 -255.99800362 272.57681954 -255.9375 256.6875 C-255.93534485 255.66959381 -255.9331897 254.65168762 -255.93096924 253.60293579 C-255.88129854 238.99386477 -255.63040191 224.66174147 -252.625 210.3125 C-252.42632324 209.33764648 -252.22764648 208.36279297 -252.02294922 207.35839844 C-241.90232806 158.9765226 -219.9858123 114.98821731 -185.625 79.3125 C-184.99287598 78.65314453 -184.36075195 77.99378906 -183.70947266 77.31445312 C-174.56502521 67.82619695 -165.26765991 59.0862956 -154.625 51.3125 C-153.47394983 50.45443848 -152.32290823 49.59636549 -151.171875 48.73828125 C-142.98224019 42.70072604 -134.47961724 37.31792698 -125.625 32.3125 C-124.91778809 31.9103125 -124.21057617 31.508125 -123.48193359 31.09375 C-100.34654164 18.0683259 -75.17537591 9.31948539 -49.1875 4 C-48.46860596 3.85264404 -47.74971191 3.70528809 -47.0090332 3.5534668 C-31.36274391 0.57960912 -15.88931954 -0.06050362 0 0 Z " fill="#66BB6A" transform="translate(255.625,-0.3125)"/>
<path d="M0 0 C23.21495975 -0.60469318 44.60686327 7.05856377 61.5546875 22.9921875 C62.30363281 23.70761719 63.05257812 24.42304688 63.82421875 25.16015625 C64.43910156 25.70027344 65.05398438 26.24039063 65.6875 26.796875 C78.8782969 38.8353724 86.85307309 57.70397445 88.82421875 75.16015625 C89.95526043 100.13858337 85.87352502 122.89723514 68.82421875 142.16015625 C65.86983651 145.21879102 62.80551211 148.16199067 59.74267578 151.11132812 C48.24285425 162.39128607 47.04068817 173.34605383 45.82421875 189.16015625 C17.77421875 189.16015625 -10.27578125 189.16015625 -39.17578125 189.16015625 C-39.50578125 183.55015625 -39.83578125 177.94015625 -40.17578125 172.16015625 C-41.35996344 168.30059948 -42.29225971 165.56639489 -44.17578125 162.16015625 C-44.5521875 161.45246094 -44.92859375 160.74476563 -45.31640625 160.015625 C-48.36305822 154.92257728 -52.24493546 151.04889334 -56.48828125 146.97265625 C-66.21481814 137.57084392 -72.57945947 126.91766355 -77.17578125 114.16015625 C-77.48257813 113.32355469 -77.789375 112.48695313 -78.10546875 111.625 C-84.26581953 94.05333277 -83.82189172 71.16013791 -76.17578125 54.16015625 C-75.66789063 52.9690625 -75.16 51.77796875 -74.63671875 50.55078125 C-64.57240284 28.70501497 -46.64168726 12.76064138 -24.17578125 4.16015625 C-16.13441494 1.45708093 -8.43008922 0.42513365 0 0 Z " fill="#FDFEFC" transform="translate(252.17578125,148.83984375)"/>
<path d="M0 0 C2.27632693 1.46386433 4.37945599 2.87664481 6.359375 4.72265625 C6.359375 5.38265625 6.359375 6.04265625 6.359375 6.72265625 C7.019375 6.72265625 7.679375 6.72265625 8.359375 6.72265625 C8.6378125 5.85640625 8.6378125 5.85640625 8.921875 4.97265625 C11.07463354 1.60312114 13.66031379 -0.00579146 17.359375 -1.27734375 C23.62997903 -2.30502608 28.87133258 -2.09279725 34.359375 1.28515625 C38.12663282 4.22512152 41.04764424 7.04296813 42.359375 11.72265625 C42.85494892 16.85330391 42.79166764 21.7503883 41.359375 26.72265625 C42.24625 26.97015625 43.133125 27.21765625 44.046875 27.47265625 C50.03560905 29.73255589 53.16580856 33.24797093 56.359375 38.72265625 C58.59980706 45.54645587 58.25709548 54.20278517 55.359375 60.72265625 C56.101875 61.40328125 56.844375 62.08390625 57.609375 62.78515625 C62.63046521 67.94929746 64.61902294 71.87968211 64.921875 79.09765625 C64.68500741 86.20368406 62.72922027 91.21801717 57.796875 96.34765625 C55.40998341 98.44812085 53.38487066 99.7141577 50.359375 100.72265625 C50.35679687 101.70105469 50.35421875 102.67945313 50.3515625 103.6875 C50.05162031 113.85554019 48.25553608 119.9488992 40.859375 127.16015625 C34.44286505 131.17047497 27.77494879 131.65675166 20.359375 130.72265625 C14.65060468 128.64829826 10.34936563 125.22748438 6.359375 120.72265625 C6.111875 121.32722656 5.864375 121.93179688 5.609375 122.5546875 C4.15132746 125.0834887 2.86155155 125.95208646 0.359375 127.41015625 C-0.341875 127.82652344 -1.043125 128.24289062 -1.765625 128.671875 C-7.14198127 131.68487466 -12.58133687 131.31465567 -18.640625 130.72265625 C-26.17554416 128.44439898 -29.95979014 123.41388819 -33.640625 116.72265625 C-35.00601438 113.99187749 -34.77294326 111.76705258 -34.765625 108.72265625 C-34.76820313 107.65015625 -34.77078125 106.57765625 -34.7734375 105.47265625 C-34.640625 102.72265625 -34.640625 102.72265625 -33.640625 100.72265625 C-34.9709375 100.35140625 -34.9709375 100.35140625 -36.328125 99.97265625 C-42.88562057 97.49812962 -45.61389302 93.77612022 -48.640625 87.72265625 C-50.43489991 81.87018908 -50.875217 75.55909229 -48.40625 69.88671875 C-46.1585541 66.09234101 -43.86741643 62.74595632 -40.640625 59.72265625 C-41.12595703 58.66691406 -41.12595703 58.66691406 -41.62109375 57.58984375 C-43.68437702 51.78735365 -43.70801918 44.54698331 -41.390625 38.78515625 C-37.94375791 32.75313883 -34.78264832 29.79366791 -28.640625 26.72265625 C-27.980625 26.72265625 -27.320625 26.72265625 -26.640625 26.72265625 C-26.970625 25.73265625 -27.300625 24.74265625 -27.640625 23.72265625 C-28.34364305 15.98945765 -27.44411758 10.14914719 -22.390625 3.97265625 C-15.93794037 -1.30681299 -7.79268291 -3.76953744 0 0 Z " fill="#6ABD6E" transform="translate(248.640625,171.27734375)"/>
<path d="M0 0 C3.11709136 1.69624851 5.38929088 3.77858175 7 7 C7.12114921 8.64255791 7.17540767 10.29052478 7.1875 11.9375 C7.20167969 12.81277344 7.21585937 13.68804687 7.23046875 14.58984375 C7 17 7 17 5 20 C2.9571488 20.86476523 0.90799464 21.44598346 -1.22265625 22.05859375 C-3.21557406 22.8578545 -3.21557406 22.8578545 -3.74609375 25.09765625 C-3.82988281 25.72542969 -3.91367187 26.35320312 -4 27 C-2.37191406 26.93039063 -2.37191406 26.93039063 -0.7109375 26.859375 C0.73434731 26.82183513 2.17966211 26.78543736 3.625 26.75 C4.33785156 26.71648437 5.05070312 26.68296875 5.78515625 26.6484375 C11.01032037 26.55256293 13.83554307 27.58651071 18 31 C21.80985554 35.32470089 23.37342363 37.90188935 23.27734375 43.7734375 C22.63039303 48.96726724 20.26094152 52.77139031 16.5625 56.375 C11.24745543 58.7994063 5.77045214 59.34932587 0 60 C0.33 61.32 0.66 62.64 1 64 C9.56079161 64.61020916 9.56079161 64.61020916 17.5 61.875 C19.2325 60.946875 19.2325 60.946875 21 60 C24.84509553 61.34902976 26.67623177 63.7146725 29 67 C30.55417619 71.66252858 30.54448802 75.48753327 28.875 80.125 C26.30678923 84.06292318 23.25774835 86.87112583 19 89 C8.76815163 90.0198411 8.76815163 90.0198411 4.375 87.0625 C2 85 2 85 1 84 C-0.66617115 83.95936168 -2.33388095 83.957279 -4 84 C-3.70423675 87.22053311 -3.45141131 88.60912278 -0.9609375 90.765625 C4.10875742 93.67572178 8.11773581 95.74424938 14 96 C15.24182397 99.7254719 15.53604929 103.13016474 15 107 C12.47350556 111.6920611 9.42375553 115.68986187 4.6875 118.25 C0.06924319 119.53881585 -3.60550388 119.5020186 -8.125 117.875 C-13.0587455 114.65733989 -16.29171679 110.62447303 -18 105 C-18.29027934 101.89899149 -18.2835036 98.81204354 -18.2746582 95.69921875 C-18.27976913 94.77017731 -18.28488007 93.84113586 -18.29014587 92.88394165 C-18.30402599 89.81839526 -18.3030865 86.75307404 -18.30078125 83.6875 C-18.30466859 81.55427975 -18.30900334 79.42106027 -18.31376648 77.2878418 C-18.32122496 72.81914764 -18.32093975 68.35053249 -18.31567383 63.88183594 C-18.3098749 58.15514289 -18.32682237 52.42877281 -18.3500185 46.70213318 C-18.36474768 42.29779164 -18.36562873 37.89352807 -18.36250877 33.48916626 C-18.36302224 31.37764851 -18.36826464 29.26612643 -18.37832069 27.15463257 C-18.39065394 24.20313484 -18.38391231 21.25226883 -18.37231445 18.30078125 C-18.37995819 17.42894196 -18.38760193 16.55710266 -18.39547729 15.65884399 C-18.34236633 9.54532606 -17.061817 6.31173421 -12.9375 1.6875 C-8.65441835 -0.77299372 -4.82461005 -0.91713833 0 0 Z " fill="#FCFDFB" transform="translate(277,177)"/>
<path d="M0 0 C4.29201862 1.73507136 6.05519764 3.84865957 8 8 C8.43702816 11.15694287 8.40992699 14.28553293 8.38818359 17.46850586 C8.39344055 18.41544815 8.39869751 19.36239044 8.40411377 20.33802795 C8.41730189 23.46380173 8.40857901 26.58906491 8.3984375 29.71484375 C8.40045874 31.89050901 8.4033706 34.06617361 8.40713501 36.24183655 C8.4115569 40.80053155 8.40513213 45.35905013 8.39111328 49.91772461 C8.37403181 55.75643702 8.38385707 61.5947354 8.40183067 67.43343258 C8.41268072 71.92618417 8.40921635 76.41883792 8.4014473 80.91159248 C8.39944815 83.064144 8.40189453 85.21670444 8.40888596 87.36924553 C8.41651922 90.38043556 8.40486909 93.39095911 8.38818359 96.40209961 C8.39729263 97.73251785 8.39729263 97.73251785 8.40658569 99.08981323 C8.34604037 104.99878477 7.43498472 109.36025521 3.28125 113.86328125 C2.6934375 114.34152344 2.105625 114.81976563 1.5 115.3125 C0.61828125 116.04919922 0.61828125 116.04919922 -0.28125 116.80078125 C-4.02387164 119.41211044 -7.58212833 119.36815597 -12 119 C-17.53381915 116.87427406 -21.33218135 113.3356373 -24 108 C-24.07033769 106.12620395 -24.0843022 104.24998898 -24.0625 102.375 C-24.05347656 101.37210937 -24.04445312 100.36921875 -24.03515625 99.3359375 C-24.02355469 98.56507813 -24.01195312 97.79421875 -24 97 C-23.43152344 96.82984375 -22.86304688 96.6596875 -22.27734375 96.484375 C-16.25598508 94.59453288 -10.55148482 92.55148482 -6 88 C-6 86.68 -6 85.36 -6 84 C-8.33165034 83.66501699 -8.33165034 83.66501699 -11 84 C-13.14589423 85.89586384 -13.14589423 85.89586384 -15 88 C-19.62835514 89.54278505 -24.1664845 89.50478774 -29 89 C-34.14853681 86.4257316 -37.182008 83.45397599 -39 78 C-39.58455897 73.35312615 -40.09976327 68.86927694 -37.66015625 64.72265625 C-36.18478505 63.02511151 -34.69413174 61.47732322 -33 60 C-28.24229075 61.85022026 -28.24229075 61.85022026 -26.28125 63.0625 C-23.05417901 64.38869356 -20.22124832 64.18928238 -16.75 64.125 C-15.48671875 64.10695313 -14.2234375 64.08890625 -12.921875 64.0703125 C-11.95765625 64.04710937 -10.9934375 64.02390625 -10 64 C-10 62.68 -10 61.36 -10 60 C-10.70125 59.98582031 -11.4025 59.97164062 -12.125 59.95703125 C-18.89664565 59.61660885 -23.86987822 58.61459484 -29 54 C-32.84154354 48.9579741 -32.80870306 43.09707585 -32 37 C-29.66541813 32.06146144 -26.74722847 29.60987676 -22 27 C-19.18212446 26.54582803 -16.46948695 26.61626282 -13.625 26.75 C-12.52091797 26.77707031 -12.52091797 26.77707031 -11.39453125 26.8046875 C-9.59578264 26.85140824 -7.79771289 26.92313817 -6 27 C-6 25.68 -6 24.36 -6 23 C-6.71027344 22.73445313 -7.42054688 22.46890625 -8.15234375 22.1953125 C-9.07144531 21.84210938 -9.99054688 21.48890625 -10.9375 21.125 C-11.85402344 20.77695313 -12.77054688 20.42890625 -13.71484375 20.0703125 C-16 19 -16 19 -17 17 C-17.51512617 12.90842645 -17.94367269 8.76410454 -15.953125 5.04296875 C-11.25620316 -0.63478088 -6.96956153 -0.60461496 0 0 Z " fill="#FDFEFC" transform="translate(245,177)"/>
<path d="M0 0 C27.72 0 55.44 0 84 0 C84 17 84 17 79 23 C75.61520594 24.12826469 72.98986153 24.1546523 69.4206543 24.19287109 C68.7568576 24.20104858 68.09306091 24.20922607 67.40914917 24.21765137 C65.21418143 24.24244682 63.0192781 24.25900609 60.82421875 24.2734375 C60.07321207 24.27876118 59.32220539 24.28408485 58.54844093 24.28956985 C54.57340135 24.31627585 50.59839291 24.33565896 46.62329102 24.35009766 C43.33785156 24.36343723 40.05303317 24.39129245 36.76782227 24.43212891 C32.7961271 24.4814943 28.82499521 24.50622303 24.85300636 24.51332474 C23.34234275 24.52002873 21.83169128 24.53522889 20.32120323 24.55921555 C7.02003408 24.75839141 7.02003408 24.75839141 3.08911133 21.59228516 C-2.84657672 14.22695435 0 13.85775744 0 0 Z " fill="#FDFEFC" transform="translate(214,345)"/>
<path d="M0 0 C17.82 0 35.64 0 54 0 C51.79112593 9.93993332 49.14276271 15.25500734 41 21 C33.78527183 25.24041126 26.22848684 25.07434661 18.1484375 23.4140625 C10.08381149 20.69256332 5.35369963 14.8247619 1 7.75 C0 5 0 5 0 0 Z " fill="#FAFDF9" transform="translate(229,375)"/>
<path d="M0 0 C4.12594588 0.47153667 7.4689733 1.83323362 11 4 C12 6.0625 12 6.0625 12 8 C11.34 8.66 10.68 9.32 10 10 C5.00310354 9.77286834 1.96983213 7.93011419 -2 5 C-1.125 1.125 -1.125 1.125 0 0 Z " fill="#EFF8EF" transform="translate(148,183)"/>
<path d="M0 0 C0 1.65 0 3.3 0 5 C-6.27692308 9.06153846 -6.27692308 9.06153846 -9.9375 8.75 C-10.618125 8.5025 -11.29875 8.255 -12 8 C-12.33 6.68 -12.66 5.36 -13 4 C-8.61350163 0.52105302 -5.57581513 -0.123907 0 0 Z " fill="#F4FAF3" transform="translate(365,184)"/>
<path d="M0 0 C1.65 0.33 3.3 0.66 5 1 C4.28571429 9.57142857 4.28571429 9.57142857 1 13 C-0.65 12.67 -2.3 12.34 -4 12 C-3.5317879 7.22423661 -2.75668002 3.95523655 0 0 Z " fill="#F3F9F2" transform="translate(298,121)"/>
<path d="M0 0 C1.19109375 0.00773438 1.19109375 0.00773438 2.40625 0.015625 C3.2003125 0.01046875 3.994375 0.0053125 4.8125 0 C6.90625 0.265625 6.90625 0.265625 8.90625 2.265625 C8.57625 3.915625 8.24625 5.565625 7.90625 7.265625 C4.27625 7.265625 0.64625 7.265625 -3.09375 7.265625 C-3.42375 5.615625 -3.75375 3.965625 -4.09375 2.265625 C-2.09375 0.265625 -2.09375 0.265625 0 0 Z " fill="#F4FAF3" transform="translate(365.09375,226.734375)"/>
<path d="M0 0 C1.19109375 0.00773438 1.19109375 0.00773438 2.40625 0.015625 C3.2003125 0.01046875 3.994375 0.0053125 4.8125 0 C6.90625 0.265625 6.90625 0.265625 8.90625 2.265625 C8.57625 3.915625 8.24625 5.565625 7.90625 7.265625 C4.27625 7.265625 0.64625 7.265625 -3.09375 7.265625 C-3.42375 5.615625 -3.75375 3.965625 -4.09375 2.265625 C-2.09375 0.265625 -2.09375 0.265625 0 0 Z " fill="#F4FAF3" transform="translate(142.09375,226.734375)"/>
<path d="M0 0 C0.33 1.32 0.66 2.64 1 4 C-6.0547046 8.07877462 -6.0547046 8.07877462 -10 7.75 C-10.66 7.5025 -11.32 7.255 -12 7 C-11.875 4.6875 -11.875 4.6875 -11 2 C-7.05640315 -0.68881604 -4.57522989 -1.48022144 0 0 Z " fill="#F7FBF6" transform="translate(159,270)"/>
<path d="M0 0 C3.23363953 0.45611336 5.00193919 1.54780641 7.3125 3.8125 C7.84488281 4.31394531 8.37726563 4.81539062 8.92578125 5.33203125 C10 7 10 7 9.66796875 9.19921875 C9.44753906 9.79347656 9.22710937 10.38773438 9 11 C7.23828125 11.69921875 7.23828125 11.69921875 5 12 C3.04296875 10.70703125 3.04296875 10.70703125 1.1875 8.8125 C0.56230469 8.20019531 -0.06289062 7.58789062 -0.70703125 6.95703125 C-2 5 -2 5 -1.76171875 2.82421875 C-1 1 -1 1 0 0 Z " fill="#F4FAF3" transform="translate(173,146)"/>
<path d="M0 0 C4.09176955 0.30309404 7.46165096 0.87699058 11 3 C11 4.65 11 6.3 11 8 C7.63111895 9.0899321 6.18976004 9.07069492 2.8125 7.8125 C0.00644659 6.00415447 -0.93363297 5.09246438 -2 2 C-1.34 1.34 -0.68 0.68 0 0 Z " fill="#F8FCF7" transform="translate(354,269)"/>
<path d="M0 0 C1.65 0 3.3 0 5 0 C8.57142857 7.28571429 8.57142857 7.28571429 7 12 C5.35 12 3.7 12 2 12 C-1.57142857 4.71428571 -1.57142857 4.71428571 0 0 Z " fill="#F7FBF6" transform="translate(210,122)"/>
<path d="M0 0 C0.58136719 0.23074219 1.16273438 0.46148437 1.76171875 0.69921875 C2.13671875 2.82421875 2.13671875 2.82421875 1.76171875 5.69921875 C0.08027956 8.09499485 -1.73079939 10.16942477 -4.23828125 11.69921875 C-6.44140625 11.36328125 -6.44140625 11.36328125 -8.23828125 10.69921875 C-8.9375 8.9375 -8.9375 8.9375 -9.23828125 6.69921875 C-7.9453125 4.7421875 -7.9453125 4.7421875 -6.05078125 2.88671875 C-5.43847656 2.26152344 -4.82617188 1.63632813 -4.1953125 0.9921875 C-2.23828125 -0.30078125 -2.23828125 -0.30078125 0 0 Z " fill="#F7FBF6" transform="translate(338.23828125,146.30078125)"/>
<path d="M0 0 C1.65 0.33 3.3 0.66 5 1 C5 4.63 5 8.26 5 12 C3.35 12.33 1.7 12.66 0 13 C-1 12 -1 12 -1.1328125 9.53125 C-1.13023437 8.5309375 -1.12765625 7.530625 -1.125 6.5 C-1.12757813 5.4996875 -1.13015625 4.499375 -1.1328125 3.46875 C-1 1 -1 1 0 0 Z " fill="#FBFDFA" transform="translate(254,113)"/>
</svg>
